<svg xmlns="http://www.w3.org/2000/svg" width="2560" height="1313" style="cursor: move;"><g transform="translate(-103.40952322393525,-124.52334562802753) scale(1.1486983549970353)"><path class="link" marker-end="" d="M1120,381.5, 1317,524" style="stroke-width: 0.43; stroke-opacity: 1; stroke: rgb(22, 24, 23); fill: none;"></path><path class="link" marker-end="" d="M1120,381.5, 1317,581" style="stroke-width: 0.43; stroke-opacity: 1; stroke: rgb(22, 24, 23); fill: none;"></path><path class="link" marker-end="" d="M1120,381.5, 1317,638" style="stroke-width: 0.43; stroke-opacity: 1; stroke: rgb(22, 24, 23); fill: none;"></path><path class="link" marker-end="" d="M1120,381.5, 1317,695" style="stroke-width: 0.43; stroke-opacity: 1; stroke: rgb(22, 24, 23); fill: none;"></path><path class="link" marker-end="" d="M1120,438.5, 1317,524" style="stroke-width: 0.43; stroke-opacity: 1; stroke: rgb(22, 24, 23); fill: none;"></path><path class="link" marker-end="" d="M1120,438.5, 1317,581" style="stroke-width: 0.43; stroke-opacity: 1; stroke: rgb(22, 24, 23); fill: none;"></path><path class="link" marker-end="" d="M1120,438.5, 1317,638" style="stroke-width: 0.43; stroke-opacity: 1; stroke: rgb(22, 24, 23); fill: none;"></path><path class="link" marker-end="" d="M1120,438.5, 1317,695" style="stroke-width: 0.43; stroke-opacity: 1; stroke: rgb(22, 24, 23); fill: none;"></path><path class="link" marker-end="" d="M1120,495.5, 1317,524" style="stroke-width: 0.43; stroke-opacity: 1; stroke: rgb(22, 24, 23); fill: none;"></path><path class="link" marker-end="" d="M1120,495.5, 1317,581" style="stroke-width: 0.43; stroke-opacity: 1; stroke: rgb(22, 24, 23); fill: none;"></path><path class="link" marker-end="" d="M1120,495.5, 1317,638" style="stroke-width: 0.43; stroke-opacity: 1; stroke: rgb(22, 24, 23); fill: none;"></path><path class="link" marker-end="" d="M1120,495.5, 1317,695" style="stroke-width: 0.43; stroke-opacity: 1; stroke: rgb(22, 24, 23); fill: none;"></path><path class="link" marker-end="" d="M1120,552.5, 1317,524" style="stroke-width: 0.43; stroke-opacity: 1; stroke: rgb(22, 24, 23); fill: none;"></path><path class="link" marker-end="" d="M1120,552.5, 1317,581" style="stroke-width: 0.43; stroke-opacity: 1; stroke: rgb(22, 24, 23); fill: none;"></path><path class="link" marker-end="" d="M1120,552.5, 1317,638" style="stroke-width: 0.43; stroke-opacity: 1; stroke: rgb(22, 24, 23); fill: none;"></path><path class="link" marker-end="" d="M1120,552.5, 1317,695" style="stroke-width: 0.43; stroke-opacity: 1; stroke: rgb(22, 24, 23); fill: none;"></path><path class="link" marker-end="" d="M1120,609.5, 1317,524" style="stroke-width: 0.43; stroke-opacity: 1; stroke: rgb(22, 24, 23); fill: none;"></path><path class="link" marker-end="" d="M1120,609.5, 1317,581" style="stroke-width: 0.43; stroke-opacity: 1; stroke: rgb(22, 24, 23); fill: none;"></path><path class="link" marker-end="" d="M1120,609.5, 1317,638" style="stroke-width: 0.43; stroke-opacity: 1; stroke: rgb(22, 24, 23); fill: none;"></path><path class="link" marker-end="" d="M1120,609.5, 1317,695" style="stroke-width: 0.43; stroke-opacity: 1; stroke: rgb(22, 24, 23); fill: none;"></path><path class="link" marker-end="" d="M1120,666.5, 1317,524" style="stroke-width: 0.43; stroke-opacity: 1; stroke: rgb(22, 24, 23); fill: none;"></path><path class="link" marker-end="" d="M1120,666.5, 1317,581" style="stroke-width: 0.43; stroke-opacity: 1; stroke: rgb(22, 24, 23); fill: none;"></path><path class="link" marker-end="" d="M1120,666.5, 1317,638" style="stroke-width: 0.43; stroke-opacity: 1; stroke: rgb(22, 24, 23); fill: none;"></path><path class="link" marker-end="" d="M1120,666.5, 1317,695" style="stroke-width: 0.43; stroke-opacity: 1; stroke: rgb(22, 24, 23); fill: none;"></path><path class="link" marker-end="" d="M1120,723.5, 1317,524" style="stroke-width: 0.43; stroke-opacity: 1; stroke: rgb(22, 24, 23); fill: none;"></path><path class="link" marker-end="" d="M1120,723.5, 1317,581" style="stroke-width: 0.43; stroke-opacity: 1; stroke: rgb(22, 24, 23); fill: none;"></path><path class="link" marker-end="" d="M1120,723.5, 1317,638" style="stroke-width: 0.43; stroke-opacity: 1; stroke: rgb(22, 24, 23); fill: none;"></path><path class="link" marker-end="" d="M1120,723.5, 1317,695" style="stroke-width: 0.43; stroke-opacity: 1; stroke: rgb(22, 24, 23); fill: none;"></path><path class="link" marker-end="" d="M1120,780.5, 1317,524" style="stroke-width: 0.43; stroke-opacity: 1; stroke: rgb(22, 24, 23); fill: none;"></path><path class="link" marker-end="" d="M1120,780.5, 1317,581" style="stroke-width: 0.43; stroke-opacity: 1; stroke: rgb(22, 24, 23); fill: none;"></path><path class="link" marker-end="" d="M1120,780.5, 1317,638" style="stroke-width: 0.43; stroke-opacity: 1; stroke: rgb(22, 24, 23); fill: none;"></path><path class="link" marker-end="" d="M1120,780.5, 1317,695" style="stroke-width: 0.43; stroke-opacity: 1; stroke: rgb(22, 24, 23); fill: none;"></path><path class="link" marker-end="" d="M1120,381.5, 1317,467" style="stroke-width: 0.43; stroke-opacity: 1; stroke: rgb(22, 24, 23); fill: none;"></path><path class="link" marker-end="" d="M1120,438.5, 1317,467" style="stroke-width: 0.43; stroke-opacity: 1; stroke: rgb(22, 24, 23); fill: none;"></path><path class="link" marker-end="" d="M1120,495.5, 1317,467" style="stroke-width: 0.43; stroke-opacity: 1; stroke: rgb(22, 24, 23); fill: none;"></path><path class="link" marker-end="" d="M1120,552.5, 1317,467" style="stroke-width: 0.43; stroke-opacity: 1; stroke: rgb(22, 24, 23); fill: none;"></path><path class="link" marker-end="" d="M1120,609.5, 1317,467" style="stroke-width: 0.43; stroke-opacity: 1; stroke: rgb(22, 24, 23); fill: none;"></path><path class="link" marker-end="" d="M1120,666.5, 1317,467" style="stroke-width: 0.43; stroke-opacity: 1; stroke: rgb(22, 24, 23); fill: none;"></path><path class="link" marker-end="" d="M1120,723.5, 1317,467" style="stroke-width: 0.43; stroke-opacity: 1; stroke: rgb(22, 24, 23); fill: none;"></path><path class="link" marker-end="" d="M1120,780.5, 1317,467" style="stroke-width: 0.43; stroke-opacity: 1; stroke: rgb(22, 24, 23); fill: none;"></path><path class="link" marker-end="" d="M1317,467, 1514,638" style="stroke-width: 0.43; stroke-opacity: 1; stroke: rgb(22, 24, 23); fill: none;"></path><path class="link" marker-end="" d="M1317,524, 1514,638" style="stroke-width: 0.43; stroke-opacity: 1; stroke: rgb(22, 24, 23); fill: none;"></path><path class="link" marker-end="" d="M1317,581, 1514,638" style="stroke-width: 0.43; stroke-opacity: 1; stroke: rgb(22, 24, 23); fill: none;"></path><path class="link" marker-end="" d="M1317,638, 1514,638" style="stroke-width: 0.43; stroke-opacity: 1; stroke: rgb(22, 24, 23); fill: none;"></path><path class="link" marker-end="" d="M1317,695, 1514,638" style="stroke-width: 0.43; stroke-opacity: 1; stroke: rgb(22, 24, 23); fill: none;"></path><path class="link" marker-end="" d="M1120,837.5, 1317,467" style="stroke-width: 0.43; stroke-opacity: 1; stroke: rgb(22, 24, 23); fill: none;"></path><path class="link" marker-end="" d="M1120,837.5, 1317,524" style="stroke-width: 0.43; stroke-opacity: 1; stroke: rgb(22, 24, 23); fill: none;"></path><path class="link" marker-end="" d="M1120,837.5, 1317,581" style="stroke-width: 0.43; stroke-opacity: 1; stroke: rgb(22, 24, 23); fill: none;"></path><path class="link" marker-end="" d="M1120,837.5, 1317,638" style="stroke-width: 0.43; stroke-opacity: 1; stroke: rgb(22, 24, 23); fill: none;"></path><path class="link" marker-end="" d="M1120,837.5, 1317,695" style="stroke-width: 0.43; stroke-opacity: 1; stroke: rgb(22, 24, 23); fill: none;"></path><path class="link" marker-end="" d="M1120,894.5, 1317,467" style="stroke-width: 0.43; stroke-opacity: 1; stroke: rgb(22, 24, 23); fill: none;"></path><path class="link" marker-end="" d="M1120,894.5, 1317,524" style="stroke-width: 0.43; stroke-opacity: 1; stroke: rgb(22, 24, 23); fill: none;"></path><path class="link" marker-end="" d="M1120,894.5, 1317,581" style="stroke-width: 0.43; stroke-opacity: 1; stroke: rgb(22, 24, 23); fill: none;"></path><path class="link" marker-end="" d="M1120,894.5, 1317,638" style="stroke-width: 0.43; stroke-opacity: 1; stroke: rgb(22, 24, 23); fill: none;"></path><path class="link" marker-end="" d="M1120,894.5, 1317,695" style="stroke-width: 0.43; stroke-opacity: 1; stroke: rgb(22, 24, 23); fill: none;"></path><path class="link" marker-end="" d="M1120,381.5, 1317,752" style="stroke-width: 0.43; stroke-opacity: 1; stroke: rgb(22, 24, 23); fill: none;"></path><path class="link" marker-end="" d="M1120,381.5, 1317,809" style="stroke-width: 0.43; stroke-opacity: 1; stroke: rgb(22, 24, 23); fill: none;"></path><path class="link" marker-end="" d="M1120,438.5, 1317,752" style="stroke-width: 0.43; stroke-opacity: 1; stroke: rgb(22, 24, 23); fill: none;"></path><path class="link" marker-end="" d="M1120,438.5, 1317,809" style="stroke-width: 0.43; stroke-opacity: 1; stroke: rgb(22, 24, 23); fill: none;"></path><path class="link" marker-end="" d="M1120,495.5, 1317,752" style="stroke-width: 0.43; stroke-opacity: 1; stroke: rgb(22, 24, 23); fill: none;"></path><path class="link" marker-end="" d="M1120,495.5, 1317,809" style="stroke-width: 0.43; stroke-opacity: 1; stroke: rgb(22, 24, 23); fill: none;"></path><path class="link" marker-end="" d="M1120,552.5, 1317,752" style="stroke-width: 0.43; stroke-opacity: 1; stroke: rgb(22, 24, 23); fill: none;"></path><path class="link" marker-end="" d="M1120,552.5, 1317,809" style="stroke-width: 0.43; stroke-opacity: 1; stroke: rgb(22, 24, 23); fill: none;"></path><path class="link" marker-end="" d="M1120,609.5, 1317,752" style="stroke-width: 0.43; stroke-opacity: 1; stroke: rgb(22, 24, 23); fill: none;"></path><path class="link" marker-end="" d="M1120,609.5, 1317,809" style="stroke-width: 0.43; stroke-opacity: 1; stroke: rgb(22, 24, 23); fill: none;"></path><path class="link" marker-end="" d="M1120,666.5, 1317,752" style="stroke-width: 0.43; stroke-opacity: 1; stroke: rgb(22, 24, 23); fill: none;"></path><path class="link" marker-end="" d="M1120,666.5, 1317,809" style="stroke-width: 0.43; stroke-opacity: 1; stroke: rgb(22, 24, 23); fill: none;"></path><path class="link" marker-end="" d="M1120,723.5, 1317,752" style="stroke-width: 0.43; stroke-opacity: 1; stroke: rgb(22, 24, 23); fill: none;"></path><path class="link" marker-end="" d="M1120,723.5, 1317,809" style="stroke-width: 0.43; stroke-opacity: 1; stroke: rgb(22, 24, 23); fill: none;"></path><path class="link" marker-end="" d="M1120,780.5, 1317,752" style="stroke-width: 0.43; stroke-opacity: 1; stroke: rgb(22, 24, 23); fill: none;"></path><path class="link" marker-end="" d="M1120,780.5, 1317,809" style="stroke-width: 0.43; stroke-opacity: 1; stroke: rgb(22, 24, 23); fill: none;"></path><path class="link" marker-end="" d="M1120,837.5, 1317,752" style="stroke-width: 0.43; stroke-opacity: 1; stroke: rgb(22, 24, 23); fill: none;"></path><path class="link" marker-end="" d="M1120,837.5, 1317,809" style="stroke-width: 0.43; stroke-opacity: 1; stroke: rgb(22, 24, 23); fill: none;"></path><path class="link" marker-end="" d="M1120,894.5, 1317,752" style="stroke-width: 0.43; stroke-opacity: 1; stroke: rgb(22, 24, 23); fill: none;"></path><path class="link" marker-end="" d="M1120,894.5, 1317,809" style="stroke-width: 0.43; stroke-opacity: 1; stroke: rgb(22, 24, 23); fill: none;"></path><path class="link" marker-end="" d="M1317,752, 1514,638" style="stroke-width: 0.43; stroke-opacity: 1; stroke: rgb(22, 24, 23); fill: none;"></path><path class="link" marker-end="" d="M1317,809, 1514,638" style="stroke-width: 0.43; stroke-opacity: 1; stroke: rgb(22, 24, 23); fill: none;"></path><circle r="18.5" class="node" id="0_0" cx="1120" cy="381.5" style="fill: rgb(255, 255, 255); stroke: rgb(29, 120, 191);"></circle><circle r="18.5" class="node" id="0_1" cx="1120" cy="438.5" style="fill: rgb(255, 255, 255); stroke: rgb(29, 120, 191);"></circle><circle r="18.5" class="node" id="0_2" cx="1120" cy="495.5" style="fill: rgb(255, 255, 255); stroke: rgb(29, 120, 191);"></circle><circle r="18.5" class="node" id="0_3" cx="1120" cy="552.5" style="fill: rgb(255, 255, 255); stroke: rgb(29, 120, 191);"></circle><circle r="18.5" class="node" id="0_4" cx="1120" cy="609.5" style="fill: rgb(255, 255, 255); stroke: rgb(29, 120, 191);"></circle><circle r="18.5" class="node" id="0_5" cx="1120" cy="666.5" style="fill: rgb(255, 255, 255); stroke: rgb(29, 120, 191);"></circle><circle r="18.5" class="node" id="0_6" cx="1120" cy="723.5" style="fill: rgb(255, 255, 255); stroke: rgb(29, 120, 191);"></circle><circle r="18.5" class="node" id="0_7" cx="1120" cy="780.5" style="fill: rgb(255, 255, 255); stroke: rgb(29, 120, 191);"></circle><circle r="18.5" class="node" id="0_8" cx="1120" cy="837.5" style="fill: rgb(255, 255, 255); stroke: rgb(29, 120, 191);"></circle><circle r="18.5" class="node" id="0_9" cx="1120" cy="894.5" style="fill: rgb(255, 255, 255); stroke: rgb(29, 120, 191);"></circle><circle r="18.5" class="node" id="1_0" cx="1317" cy="467" style="fill: rgb(255, 255, 255); stroke: rgb(29, 120, 191);"></circle><circle r="18.5" class="node" id="1_1" cx="1317" cy="524" style="fill: rgb(255, 255, 255); stroke: rgb(29, 120, 191);"></circle><circle r="18.5" class="node" id="1_2" cx="1317" cy="581" style="fill: rgb(255, 255, 255); stroke: rgb(29, 120, 191);"></circle><circle r="18.5" class="node" id="1_3" cx="1317" cy="638" style="fill: rgb(255, 255, 255); stroke: rgb(29, 120, 191);"></circle><circle r="18.5" class="node" id="1_4" cx="1317" cy="695" style="fill: rgb(255, 255, 255); stroke: rgb(29, 120, 191);"></circle><circle r="18.5" class="node" id="1_5" cx="1317" cy="752" style="fill: rgb(255, 255, 255); stroke: rgb(29, 120, 191);"></circle><circle r="18.5" class="node" id="1_6" cx="1317" cy="809" style="fill: rgb(255, 255, 255); stroke: rgb(29, 120, 191);"></circle><circle r="18.5" class="node" id="2_0" cx="1514" cy="638" style="fill: rgb(255, 255, 255); stroke: rgb(29, 120, 191);"></circle><text class="text" dy=".35em" x="1085" y="951.5" style="font-size: 12px;"></text><text class="text" dy=".35em" x="1282" y="951.5" style="font-size: 12px;"></text><text class="text" dy=".35em" x="1479" y="951.5" style="font-size: 12px;"></text></g><defs><marker id="arrow" viewBox="0 -5 10 10" markerWidth="7" markerHeight="7" orient="auto" refX="63.8"><path d="M0,-5L10,0L0,5" style="stroke: rgb(80, 80, 80); fill: none;"></path></marker></defs></svg>